{"asset":{"version":"2.0","generator":"Unity 6000.3.10f1 glTFast 6.14.1"},"nodes":[{"name":"Colliders"},{"name":"Body","children":[0],"mesh":0,"translation":[0,0.428,0.818365633]},{"name":"WheelHeavyFrontLeft","mesh":1,"translation":[0.888,0.428,1.153],"rotation":[0,3.25841341E-07,0,1],"scale":[1.15,1.15,1.15]},{"name":"WheelHeavyFrontRight","mesh":2,"translation":[-0.888,0.428,1.15299988],"scale":[1.15,1.15,1.15]},{"name":"WheelHeavyRearLeft","mesh":3,"translation":[0.888,0.428,-1.367],"rotation":[0,3.25841341E-07,0,1],"scale":[1.15,1.15,1.15]},{"name":"WheelHeavyRearRight","mesh":4,"translation":[-0.888,0.428,-1.367],"scale":[1.15,1.15,1.15]},{"name":"WheelsHeavy","children":[2,3,4,5]},{"name":"WheelHeavyFrontLeft (1)","translation":[0.888,0.428,1.153],"rotation":[0,3.25841341E-07,0,1]},{"name":"WheelHeavyFrontRight (1)","translation":[-0.888,0.428,1.153]},{"name":"WheelHeavyRearLeft (1)","translation":[0.888,0.428,-1.367],"rotation":[0,3.25841341E-07,0,1]},{"name":"WheelHeavyRearRight (1)","translation":[-0.888,0.428,-1.367]},{"name":"Colliders","children":[7,8,9,10]},{"name":"Wheels","children":[6,11]},{"name":"TrailerDoor.001","mesh":5,"translation":[-0.93864,0.983,-5.9342]},{"name":"TrailerDoor","mesh":6,"translation":[0.93864,0.983,-5.9342]},{"name":"Collider"},{"name":"Body","children":[13,14,15],"mesh":7},{"name":"WheelHeavyFrontLeft (1)","mesh":1,"translation":[0.9,-0.561,-4.155709],"rotation":[0,3.25841341E-07,0,1],"scale":[1.15,1.15,1.15]},{"name":"WheelHeavyFrontRight (1)","mesh":2,"translation":[-0.9,-0.561,-4.155709],"scale":[1.15,1.15,1.15]},{"name":"WheelHeavyRearLeft (1)","mesh":3,"translation":[0.9,-0.561,-5.311],"rotation":[0,3.25841341E-07,0,1],"scale":[1.15,1.15,1.15]},{"name":"WheelHeavyRearRight (1)","mesh":4,"translation":[-0.9,-0.561,-5.311],"scale":[1.15,1.15,1.15]},{"name":"WheelsHeavy","children":[17,18,19,20]},{"name":"WheelHeavyFrontLeft (2)","translation":[0.9,-0.561,-4.155709],"rotation":[0,3.25841341E-07,0,1]},{"name":"WheelHeavyFrontRight (2)","translation":[-0.9,-0.561,-4.155709]},{"name":"WheelHeavyRearLeft (2)","translation":[0.9,-0.561,-5.311],"rotation":[0,3.25841341E-07,0,1]},{"name":"WheelHeavyRearRight (2)","translation":[-0.9,-0.561,-5.311]},{"name":"Colliders","children":[22,23,24,25]},{"name":"Wheels","children":[21,26]},{"name":"LorryTrailer","children":[16,27]},{"name":"Pivot","children":[28],"translation":[0,1,-1.29]},{"name":"Truck_Purple","children":[1,12,29],"translation":[6.62216759,-1.51406766E-07,3.382555]}],"buffers":[{"uri":"Truck_Purple.bin","byteLength":278616}],"bufferViews":[{"buffer":0,"byteLength":228,"target":34963},{"buffer":0,"byteLength":7536,"byteOffset":228,"target":34963},{"buffer":0,"byteLength":2376,"byteOffset":7764,"target":34963},{"buffer":0,"byteLength":2376,"byteOffset":10140,"target":34963},{"buffer":0,"byteLength":2376,"byteOffset":12516,"target":34963},{"buffer":0,"byteLength":2376,"byteOffset":14892,"target":34963},{"buffer":0,"byteLength":228,"byteOffset":17268,"target":34963},{"buffer":0,"byteLength":3840,"byteOffset":17496,"target":34963},{"buffer":0,"byteLength":22080,"byteOffset":21336,"byteStride":48,"target":34962},{"buffer":0,"byteLength":2880,"byteOffset":43416,"byteStride":48,"target":34962},{"buffer":0,"byteLength":108576,"byteOffset":46296,"byteStride":48,"target":34962},{"buffer":0,"byteLength":22080,"byteOffset":154872,"byteStride":48,"target":34962},{"buffer":0,"byteLength":22080,"byteOffset":176952,"byteStride":48,"target":34962},{"buffer":0,"byteLength":22080,"byteOffset":199032,"byteStride":48,"target":34962},{"buffer":0,"byteLength":2880,"byteOffset":221112,"byteStride":48,"target":34962},{"buffer":0,"byteLength":54624,"byteOffset":223992,"byteStride":48,"target":34962}],"accessors":[{"bufferView":10,"componentType":5126,"count":2262,"type":"VEC3","max":[1.26557088,2.46403956,1.52818346],"min":[-1.26557088,-0.113465786,-2.9282198]},{"bufferView":10,"componentType":5126,"count":2262,"type":"VEC3","byteOffset":12},{"bufferView":10,"componentType":5126,"count":2262,"type":"VEC4","byteOffset":24},{"bufferView":10,"componentType":5126,"count":2262,"type":"VEC2","byteOffset":40},{"bufferView":1,"componentType":5123,"count":3432,"type":"SCALAR"},{"bufferView":1,"componentType":5123,"count":336,"type":"SCALAR","byteOffset":6864},{"bufferView":11,"componentType":5126,"count":460,"type":"VEC3","max":[0.1490822,0.370672137,0.3613788],"min":[-0.1490822,-0.370672137,-0.3613788]},{"bufferView":11,"componentType":5126,"count":460,"type":"VEC3","byteOffset":12},{"bufferView":11,"componentType":5126,"count":460,"type":"VEC4","byteOffset":24},{"bufferView":11,"componentType":5126,"count":460,"type":"VEC2","byteOffset":40},{"bufferView":2,"componentType":5123,"count":1188,"type":"SCALAR"},{"bufferView":12,"componentType":5126,"count":460,"type":"VEC3","max":[0.149082527,0.370672137,0.361378878],"min":[-0.149082527,-0.370672137,-0.361378878]},{"bufferView":12,"componentType":5126,"count":460,"type":"VEC3","byteOffset":12},{"bufferView":12,"componentType":5126,"count":460,"type":"VEC4","byteOffset":24},{"bufferView":12,"componentType":5126,"count":460,"type":"VEC2","byteOffset":40},{"bufferView":3,"componentType":5123,"count":1188,"type":"SCALAR"},{"bufferView":13,"componentType":5126,"count":460,"type":"VEC3","max":[0.1490822,0.370672137,0.3613788],"min":[-0.1490822,-0.370672137,-0.3613788]},{"bufferView":13,"componentType":5126,"count":460,"type":"VEC3","byteOffset":12},{"bufferView":13,"componentType":5126,"count":460,"type":"VEC4","byteOffset":24},{"bufferView":13,"componentType":5126,"count":460,"type":"VEC2","byteOffset":40},{"bufferView":4,"componentType":5123,"count":1188,"type":"SCALAR"},{"bufferView":8,"componentType":5126,"count":460,"type":"VEC3","max":[0.149082527,0.370672137,0.361378878],"min":[-0.149082527,-0.370672137,-0.361378878]},{"bufferView":8,"componentType":5126,"count":460,"type":"VEC3","byteOffset":12},{"bufferView":8,"componentType":5126,"count":460,"type":"VEC4","byteOffset":24},{"bufferView":8,"componentType":5126,"count":460,"type":"VEC2","byteOffset":40},{"bufferView":5,"componentType":5123,"count":1188,"type":"SCALAR"},{"bufferView":14,"componentType":5126,"count":60,"type":"VEC3","max":[0.93863523,0.8134358,0.05870223],"min":[0,-0.813435555,-0.0320742875]},{"bufferView":14,"componentType":5126,"count":60,"type":"VEC3","byteOffset":12},{"bufferView":14,"componentType":5126,"count":60,"type":"VEC4","byteOffset":24},{"bufferView":14,"componentType":5126,"count":60,"type":"VEC2","byteOffset":40},{"bufferView":6,"componentType":5123,"count":114,"type":"SCALAR"},{"bufferView":9,"componentType":5126,"count":60,"type":"VEC3","max":[0,0.8134358,0.05870223],"min":[-0.93863523,-0.813435555,-0.0320742875]},{"bufferView":9,"componentType":5126,"count":60,"type":"VEC3","byteOffset":12},{"bufferView":9,"componentType":5126,"count":60,"type":"VEC4","byteOffset":24},{"bufferView":9,"componentType":5126,"count":60,"type":"VEC2","byteOffset":40},{"bufferView":0,"componentType":5123,"count":114,"type":"SCALAR"},{"bufferView":15,"componentType":5126,"count":1138,"type":"VEC3","max":[1.06164956,1.891968,1.16096163],"min":[-1.06164956,-0.6155154,-6.13886642]},{"bufferView":15,"componentType":5126,"count":1138,"type":"VEC3","byteOffset":12},{"bufferView":15,"componentType":5126,"count":1138,"type":"VEC4","byteOffset":24},{"bufferView":15,"componentType":5126,"count":1138,"type":"VEC2","byteOffset":40},{"bufferView":7,"componentType":5123,"count":1860,"type":"SCALAR"},{"bufferView":7,"componentType":5123,"count":60,"type":"SCALAR","byteOffset":3720}],"images":[{"name":"CarsBluePurple.png","uri":"CarsBluePurple.png","mimeType":"image/png"},{"name":"CarsWhite.png","uri":"CarsWhite.png","mimeType":"image/png"},{"name":"CarsYellow.png","uri":"CarsYellow.png","mimeType":"image/png"}],"materials":[{"name":"CarsBluePurple","pbrMetallicRoughness":{"baseColorFactor":[1,1,1,0],"metallicFactor":0,"roughnessFactor":0.5,"baseColorTexture":{"index":0}}},{"name":"Lights","pbrMetallicRoughness":{"baseColorFactor":[0.9162945,0.7579382,0.479512155,1],"metallicFactor":0,"roughnessFactor":0.5,"baseColorTexture":{"index":2}},"emissiveTexture":{"index":1},"emissiveFactor":[0.6037736,0.6037736,0.6037736]},{"name":"CarsWhite","pbrMetallicRoughness":{"metallicFactor":0,"roughnessFactor":0.5,"baseColorTexture":{"index":1}}}],"meshes":[{"name":"Lorry","primitives":[{"attributes":{"POSITION":0,"NORMAL":1,"TANGENT":2,"TEXCOORD_0":3},"indices":4,"material":0},{"attributes":{"POSITION":0,"NORMAL":1,"TANGENT":2,"TEXCOORD_0":3},"indices":5,"material":1}]},{"name":"WheelHeavyFrontLeft","primitives":[{"attributes":{"POSITION":6,"NORMAL":7,"TANGENT":8,"TEXCOORD_0":9},"indices":10,"material":2}]},{"name":"WheelHeavyFrontRight","primitives":[{"attributes":{"POSITION":11,"NORMAL":12,"TANGENT":13,"TEXCOORD_0":14},"indices":15,"material":2}]},{"name":"WheelHeavyRearLeft","primitives":[{"attributes":{"POSITION":16,"NORMAL":17,"TANGENT":18,"TEXCOORD_0":19},"indices":20,"material":2}]},{"name":"WheelHeavyRearRight","primitives":[{"attributes":{"POSITION":21,"NORMAL":22,"TANGENT":23,"TEXCOORD_0":24},"indices":25,"material":2}]},{"name":"TrailerDoor.001","primitives":[{"attributes":{"POSITION":26,"NORMAL":27,"TANGENT":28,"TEXCOORD_0":29},"indices":30,"material":0}]},{"name":"TrailerDoor","primitives":[{"attributes":{"POSITION":31,"NORMAL":32,"TANGENT":33,"TEXCOORD_0":34},"indices":35,"material":0}]},{"name":"Trailer","primitives":[{"attributes":{"POSITION":36,"NORMAL":37,"TANGENT":38,"TEXCOORD_0":39},"indices":40,"material":0},{"attributes":{"POSITION":36,"NORMAL":37,"TANGENT":38,"TEXCOORD_0":39},"indices":41,"material":1}]}],"samplers":[{"magFilter":9728,"minFilter":9728,"wrapS":33071,"wrapT":33071}],"scene":0,"scenes":[{"name":"Truck_Purple","nodes":[30]}],"textures":[{"source":0,"sampler":0},{"source":1,"sampler":0},{"source":2,"sampler":0}]}